HIERARCHY
ROOT joint_Root
{
	OFFSET 0.0 0.0 0.0
	CHANNELS 6 Xposition Yposition Zposition Zrotation Xrotation Yrotation 
	JOINT Hips
	{
		OFFSET 4.5925 91.4895 -427.239
		CHANNELS 6 Xposition Yposition Zposition Zrotation Xrotation Yrotation 
		JOINT Spine
		{
			OFFSET 15.7357 0.0 0.0
			CHANNELS 6 Xposition Yposition Zposition Zrotation Xrotation Yrotation 
			JOINT Chest
			{
				OFFSET 8.98455 -0.406207 0.0
				CHANNELS 6 Xposition Yposition Zposition Zrotation Xrotation Yrotation 
				JOINT Neck
				{
					OFFSET 16.3773 0.0 0.0
					CHANNELS 6 Xposition Yposition Zposition Zrotation Xrotation Yrotation 
					JOINT Head
					{
						OFFSET 6.45672 0.0 0.0
						CHANNELS 6 Xposition Yposition Zposition Zrotation Xrotation Yrotation 
						End Site
						{
							OFFSET 0.0 0.0 0.0
						}
					}
				}
				JOINT Shoulder_L
				{
					OFFSET 12.9942 -0.242716 4.98039
					CHANNELS 6 Xposition Yposition Zposition Zrotation Xrotation Yrotation 
					JOINT UpperArm_L
					{
						OFFSET 5.34809 0.0 0.0
						CHANNELS 6 Xposition Yposition Zposition Zrotation Xrotation Yrotation 
						JOINT LowerArm_L
						{
							OFFSET 24.3286 1.87007e-05 0.0
							CHANNELS 6 Xposition Yposition Zposition Zrotation Xrotation Yrotation 
							JOINT Hand_L
							{
								OFFSET 22.2916 0.0 0.0
								CHANNELS 6 Xposition Yposition Zposition Zrotation Xrotation Yrotation 
								End Site
								{
									OFFSET 0.0 0.0 0.0
								}
							}
						}
					}
				}
				JOINT Shoulder_R
				{
					OFFSET 12.9945 -0.242716 -4.98039
					CHANNELS 6 Xposition Yposition Zposition Zrotation Xrotation Yrotation 
					JOINT UpperArm_R
					{
						OFFSET -5.34813 0.0 0.0
						CHANNELS 6 Xposition Yposition Zposition Zrotation Xrotation Yrotation 
						JOINT LowerArm_R
						{
							OFFSET -24.3289 0.000322201 0.0
							CHANNELS 6 Xposition Yposition Zposition Zrotation Xrotation Yrotation 
							JOINT Hand_R
							{
								OFFSET -22.2915 -0.000108084 0.0
								CHANNELS 6 Xposition Yposition Zposition Zrotation Xrotation Yrotation 
								End Site
								{
									OFFSET 0.0 0.0 0.0
								}
							}
						}
					}
				}
			}
		}
		JOINT UpperLeg_L
		{
			OFFSET -2.19248 -6.46944 0.0
			CHANNELS 6 Xposition Yposition Zposition Zrotation Xrotation Yrotation 
			JOINT LowerLeg_L
			{
				OFFSET 39.0811 0.0 -1.23785e-05
				CHANNELS 6 Xposition Yposition Zposition Zrotation Xrotation Yrotation 
				JOINT Foot_L
				{
					OFFSET 40.9854 0.0 -1.26872e-05
					CHANNELS 6 Xposition Yposition Zposition Zrotation Xrotation Yrotation 
					JOINT Toes_L
					{
						OFFSET 11.7543 0.0 0.0
						CHANNELS 6 Xposition Yposition Zposition Zrotation Xrotation Yrotation 
						End Site
						{
							OFFSET 0.0 0.0 0.0
						}
					}
				}
			}
		}
		JOINT UpperLeg_R
		{
			OFFSET -2.19251 6.46944 0.0
			CHANNELS 6 Xposition Yposition Zposition Zrotation Xrotation Yrotation 
			JOINT LowerLeg_R
			{
				OFFSET -39.0811 -0.00228153 -0.0401928
				CHANNELS 6 Xposition Yposition Zposition Zrotation Xrotation Yrotation 
				JOINT Foot_R
				{
					OFFSET -40.9854 0.0 0.0
					CHANNELS 6 Xposition Yposition Zposition Zrotation Xrotation Yrotation 
					JOINT Toes_R
					{
						OFFSET -11.7543 0.0 0.0
						CHANNELS 6 Xposition Yposition Zposition Zrotation Xrotation Yrotation 
						End Site
						{
							OFFSET 0.0 0.0 0.0
						}
					}
				}
			}
		}
	}
}
MOTION
Frames:	9
Frame Time:	0.0333333
0.000000 0.000000 0.000000 0.000000 0.000000 -0.000000 -0.192275 91.196700 1.964420 91.018500 1.585160 6.851110 15.735700 0.000005 -0.000001 85.865100 85.286300 -83.288700 8.984550 -0.406207 -0.000000 1.660600 -0.816523 5.160130 16.377300 -0.000001 -0.000001 10.978200 -4.968180 -5.038480 6.456720 -0.000001 -0.000000 5.637990 -7.992170 -6.847760 12.994200 -0.242716 4.980390 -85.089800 -10.379500 -64.507300 5.348090 -0.000007 -0.000001 -45.393500 -54.946400 -68.369600 24.328600 0.000019 0.000005 3.477610 5.503760 -32.346200 22.291600 -0.000001 0.000005 19.285100 4.851690 10.341100 12.994500 -0.242716 -4.980390 88.860100 3.984220 -74.019400 -5.348130 -0.000001 -0.000004 -66.249000 17.987900 1.650350 -24.328900 0.000322 -0.000009 -4.779020 -10.831300 -23.969600 -22.291500 -0.000108 -0.000004 15.673400 5.411140 -3.278890 -2.192480 -6.469440 -0.000000 -176.489000 -10.433100 -0.523990 39.081100 -0.000007 -0.000012 -0.184923 0.366071 26.801200 40.985400 -0.000006 -0.000013 0.111532 7.192910 -69.345600 11.754300 -0.000000 0.000003 -0.000117 -0.001175 -16.622500 -2.192510 6.469440 -0.000001 171.934000 24.907400 -178.726000 -39.081100 -0.002282 -0.040193 -0.213043 0.414413 27.567700 -40.985400 0.000008 0.000006 2.366280 13.571100 -70.827000 -11.754300 -0.000006 -0.000006 -0.001114 -0.017017 -17.265200
0.000000 0.000000 0.000000 0.000000 0.000000 -0.000000 -0.507231 91.196400 1.986050 91.081300 3.438150 6.712250 15.735700 0.000005 -0.000001 83.850700 85.393100 -81.772800 8.984550 -0.406207 -0.000000 1.418330 -1.101500 4.165920 16.377300 -0.000001 -0.000001 10.988900 -3.910850 -7.422330 6.456720 -0.000001 -0.000000 5.726280 -7.092380 -6.680320 12.994200 -0.242716 4.980390 -84.414000 -11.210600 -63.295100 5.348090 -0.000007 -0.000001 -42.060900 -56.097400 -74.469400 24.328600 0.000019 0.000005 6.278860 6.419550 -44.499600 22.291600 -0.000001 0.000005 22.597600 4.997310 7.412000 12.994500 -0.242716 -4.980390 88.822300 4.140460 -74.107400 -5.348130 -0.000001 -0.000004 -66.659100 18.449200 1.790560 -24.328900 0.000322 -0.000009 -2.139800 -5.749430 -20.424700 -22.291500 -0.000108 -0.000004 12.307800 5.354910 -1.510200 -2.192480 -6.469440 -0.000000 -176.395000 -9.582670 -0.910546 39.081100 -0.000007 -0.000012 -0.187795 0.371327 26.827800 40.985400 -0.000006 -0.000013 0.119668 8.175660 -69.162200 11.754300 -0.000000 0.000003 -0.000115 -0.001161 -16.622000 -2.192510 6.469440 -0.000001 172.062000 25.752400 -178.503000 -39.081100 -0.002282 -0.040193 -0.207662 0.405719 27.474200 -40.985400 0.000008 0.000006 2.346950 12.522100 -70.997300 -11.754300 -0.000006 -0.000006 -0.001076 -0.016483 -17.243500
0.000000 0.000000 0.000000 0.000000 0.000000 -0.000000 -0.758962 91.199300 1.984240 91.029100 4.647350 6.563750 15.735700 0.000005 -0.000001 82.130400 85.434800 -80.489200 8.984550 -0.406207 -0.000000 1.300090 -1.342110 3.294920 16.377300 -0.000001 -0.000001 10.933100 -2.990050 -9.033520 6.456720 -0.000001 -0.000000 6.104030 -6.303610 -5.885800 12.994200 -0.242716 4.980390 -83.782500 -11.784000 -61.922900 5.348090 -0.000007 -0.000001 -40.374900 -59.473200 -81.305700 24.328600 0.000019 0.000005 11.304300 7.308830 -57.495200 22.291600 -0.000001 0.000005 28.171100 5.155730 3.903880 12.994500 -0.242716 -4.980390 88.806400 4.217200 -74.180600 -5.348130 -0.000001 -0.000004 -67.073200 18.006500 1.808080 -24.328900 0.000322 -0.000009 -0.603248 -1.849800 -18.017700 -22.291500 -0.000108 -0.000004 11.067700 5.313480 -0.308860 -2.192480 -6.469440 -0.000000 -176.202000 -9.111270 -1.274030 39.081100 -0.000007 -0.000012 -0.189271 0.373249 26.889400 40.985400 -0.000006 -0.000013 0.117622 8.919920 -69.038800 11.754300 -0.000000 0.000003 -0.000117 -0.001174 -16.622400 -2.192510 6.469440 -0.000001 172.287000 26.788700 -178.458000 -39.081100 -0.002282 -0.040193 -0.172961 0.338688 27.494600 -40.985400 0.000008 0.000006 3.163490 12.041400 -71.323100 -11.754300 -0.000006 -0.000006 -0.001115 -0.017026 -17.265500
0.000000 0.000000 0.000000 0.000000 0.000000 -0.000000 -0.866396 91.212100 1.992020 90.968700 4.825510 6.388370 15.735700 0.000005 -0.000001 82.468300 85.505100 -81.029600 8.984550 -0.406207 -0.000000 1.163990 -1.260670 2.887900 16.377300 -0.000001 -0.000001 11.214000 -2.403930 -10.405600 6.456720 -0.000001 -0.000000 6.512860 -6.307940 -4.665440 12.994200 -0.242716 4.980390 -82.954300 -12.454000 -60.183400 5.348090 -0.000007 -0.000001 -42.256500 -61.854000 -88.317200 24.328600 0.000019 0.000005 17.938300 8.573770 -65.261400 22.291600 -0.000001 0.000005 39.310300 5.328210 -0.610627 12.994500 -0.242716 -4.980390 88.928500 3.817000 -74.306600 -5.348130 -0.000001 -0.000004 -67.685100 16.476300 1.903810 -24.328900 0.000322 -0.000009 -0.103522 -0.335983 -16.959900 -22.291500 -0.000108 -0.000004 12.583300 5.292070 0.290349 -2.192480 -6.469440 -0.000000 -176.089000 -9.076140 -1.463110 39.081100 -0.000007 -0.000012 -0.190950 0.377303 26.843900 40.985400 -0.000006 -0.000013 0.062511 9.045970 -68.979900 11.754300 -0.000000 0.000003 -0.000111 -0.001124 -16.620600 -2.192510 6.469440 -0.000001 172.351000 27.414400 -178.496000 -39.081100 -0.002282 -0.040193 -0.171458 0.337700 27.362500 -40.985400 0.000008 0.000006 3.313300 12.452000 -71.321000 -11.754300 -0.000006 -0.000006 -0.001138 -0.017344 -17.278500
0.000000 0.000000 0.000000 0.000000 0.000000 -0.000000 -0.769631 91.243400 2.049500 90.920700 3.927640 6.186150 15.735700 0.000005 -0.000001 85.046000 85.703600 -83.470200 8.984550 -0.406207 -0.000000 0.808309 -0.837402 3.154980 16.377300 -0.000001 -0.000001 11.875400 -2.201550 -11.159200 6.456720 -0.000001 -0.000000 7.080500 -6.755410 -4.352270 12.994200 -0.242716 4.980390 -82.694200 -12.289500 -58.937800 5.348090 -0.000007 -0.000001 -44.838600 -61.413900 -91.491200 24.328600 0.000019 0.000005 21.252400 10.567500 -64.752700 22.291600 -0.000001 0.000005 47.601500 5.359500 -1.673870 12.994500 -0.242716 -4.980390 89.074600 3.346010 -74.530800 -5.348130 -0.000001 -0.000004 -68.013900 14.523900 2.388920 -24.328900 0.000322 -0.000009 -0.317327 -1.003090 -17.488800 -22.291500 -0.000108 -0.000004 15.809700 5.297080 0.159766 -2.192480 -6.469440 -0.000000 -176.145000 -9.380470 -1.399580 39.081100 -0.000007 -0.000012 -0.186602 0.372343 26.618200 40.985400 -0.000006 -0.000013 -0.023795 8.459990 -68.995600 11.754300 -0.000000 0.000003 -0.000110 -0.001117 -16.620300 -2.192510 6.469440 -0.000001 172.368000 27.256800 -178.675000 -39.081100 -0.002282 -0.040193 -0.178572 0.354659 27.150300 -40.985400 0.000008 0.000006 3.282200 13.216300 -71.168800 -11.754300 -0.000006 -0.000006 -0.001284 -0.019365 -17.360600
0.000000 0.000000 0.000000 0.000000 0.000000 -0.000000 -0.588833 91.225900 2.163080 90.937200 2.504420 6.378810 15.735700 0.000005 -0.000001 87.392100 85.712200 -85.533300 8.984550 -0.406207 -0.000000 0.811613 -0.502800 3.718300 16.377300 -0.000001 -0.000001 12.075900 -2.395320 -10.427600 6.456720 -0.000001 -0.000000 7.515950 -6.829120 -4.638740 12.994200 -0.242716 4.980390 -83.220600 -11.288500 -58.729700 5.348090 -0.000007 -0.000001 -43.173200 -60.731600 -86.376100 24.328600 0.000019 0.000005 15.445100 10.423300 -56.754100 22.291600 -0.000001 0.000005 41.614900 5.312070 -0.185996 12.994500 -0.242716 -4.980390 89.039600 3.492500 -74.614400 -5.348130 -0.000001 -0.000004 -67.548400 13.976100 2.427390 -24.328900 0.000322 -0.000009 -1.197590 -3.490510 -18.925500 -22.291500 -0.000108 -0.000004 18.411600 5.334060 -0.896355 -2.192480 -6.469440 -0.000000 -176.223000 -9.947380 -0.886669 39.081100 -0.000007 -0.000012 -0.187526 0.375119 26.561200 40.985400 -0.000006 -0.000013 -0.105091 7.617270 -69.210100 11.754300 -0.000000 0.000003 -0.000114 -0.001152 -16.621600 -2.192510 6.469440 -0.000001 172.172000 26.249600 -178.626000 -39.081100 -0.002282 -0.040193 -0.206571 0.409193 27.154000 -40.985400 0.000008 0.000006 2.657730 13.872900 -70.952300 -11.754300 -0.000006 -0.000006 -0.001339 -0.020106 -17.390700
0.000000 0.000000 0.000000 0.000000 0.000000 -0.000000 -0.425511 91.182400 2.195600 91.063000 1.296400 6.749140 15.735700 0.000005 -0.000001 86.811000 85.461000 -84.578700 8.984550 -0.406207 -0.000000 1.314270 -0.630364 4.468110 16.377300 -0.000001 -0.000001 11.752300 -2.978470 -8.463400 6.456720 -0.000001 -0.000000 7.438170 -6.703550 -5.040160 12.994200 -0.242716 4.980390 -84.106700 -10.197700 -59.758100 5.348090 -0.000007 -0.000001 -36.065000 -60.567900 -72.625200 24.328600 0.000019 0.000005 6.956000 7.077240 -44.635400 22.291600 -0.000001 0.000005 30.248700 5.208220 2.647400 12.994500 -0.242716 -4.980390 88.811100 4.212230 -74.223400 -5.348130 -0.000001 -0.000004 -66.020100 14.726300 1.278500 -24.328900 0.000322 -0.000009 -2.247300 -5.892310 -20.905000 -22.291500 -0.000108 -0.000004 18.714600 5.362240 -1.749480 -2.192480 -6.469440 -0.000000 -176.332000 -10.639600 -0.334941 39.081100 -0.000007 -0.000012 -0.184968 0.368783 26.636900 40.985400 -0.000006 -0.000013 -0.097111 7.137960 -69.419800 11.754300 -0.000000 0.000003 -0.000115 -0.001161 -16.622000 -2.192510 6.469440 -0.000001 172.004000 24.945200 -178.673000 -39.081100 -0.002282 -0.040193 -0.216404 0.421146 27.551300 -40.985400 0.000008 0.000006 2.585080 13.833100 -71.041300 -11.754300 -0.000006 -0.000006 -0.001187 -0.018023 -17.306000
0.000000 0.000000 0.000000 0.000000 0.000000 -0.000000 -0.219491 91.146400 2.119750 91.168000 0.026506 6.954580 15.735700 0.000005 -0.000001 84.712700 85.140100 -81.886800 8.984550 -0.406207 -0.000000 1.944570 -1.038490 5.664400 16.377300 -0.000001 -0.000001 11.489700 -3.514090 -6.315240 6.456720 -0.000001 -0.000000 6.924880 -6.220310 -5.710150 12.994200 -0.242716 4.980390 -85.133000 -9.167740 -61.880700 5.348090 -0.000007 -0.000001 -24.242100 -58.376600 -51.644100 24.328600 0.000019 0.000005 1.280080 2.015840 -32.209900 22.291600 -0.000001 0.000005 21.209200 4.982670 7.777420 12.994500 -0.242716 -4.980390 88.565800 4.953770 -73.831100 -5.348130 -0.000001 -0.000004 -63.762500 15.585200 -0.324408 -24.328900 0.000322 -0.000009 -2.870250 -6.564340 -23.672500 -22.291500 -0.000108 -0.000004 17.256000 5.366540 -1.879970 -2.192480 -6.469440 -0.000000 -176.399000 -11.723800 -0.058342 39.081100 -0.000007 -0.000012 -0.189857 0.376365 26.768800 40.985400 -0.000006 -0.000013 0.009626 6.938860 -69.572200 11.754300 -0.000000 0.000003 -0.000118 -0.001182 -16.622700 -2.192510 6.469440 -0.000001 172.067000 23.291400 -179.080000 -39.081100 -0.002282 -0.040193 -0.217788 0.416160 27.980700 -40.985400 0.000008 0.000006 2.438740 13.528300 -71.034000 -11.754300 -0.000006 -0.000006 -0.001149 -0.017501 -17.284800
0.000000 0.000000 0.000000 0.000000 0.000000 -0.000000 0.053080 91.134800 1.917600 91.296700 -1.212390 6.852380 15.735700 0.000005 -0.000001 82.317800 84.918900 -78.828100 8.984550 -0.406207 -0.000000 2.361610 -1.521720 7.004270 16.377300 -0.000001 -0.000001 11.694800 -3.980570 -4.158840 6.456720 -0.000001 -0.000000 6.112000 -5.887150 -6.740030 12.994200 -0.242716 4.980390 -85.794000 -8.736540 -64.165800 5.348090 -0.000007 -0.000001 -19.922400 -54.456200 -34.237600 24.328600 0.000019 0.000005 0.240447 0.552638 -23.744500 22.291600 -0.000001 0.000005 18.704600 4.753400 12.180600 12.994500 -0.242716 -4.980390 88.374700 5.429590 -73.308300 -5.348130 -0.000001 -0.000004 -61.563200 16.358000 -1.869460 -24.328900 0.000322 -0.000009 -3.366800 -6.758970 -26.549600 -22.291500 -0.000108 -0.000004 16.352200 5.375860 -2.169800 -2.192480 -6.469440 -0.000000 -176.670000 -12.748500 -0.194099 39.081100 -0.000007 -0.000012 -0.184305 0.363989 26.855600 40.985400 -0.000006 -0.000013 0.150963 6.591580 -69.609400 11.754300 -0.000000 0.000003 -0.000120 -0.001200 -16.623400 -2.192510 6.469440 -0.000001 172.162000 21.856000 -179.875000 -39.081100 -0.002282 -0.040193 -0.223332 0.419846 28.361000 -40.985400 0.000008 0.000006 2.268890 13.356900 -70.890300 -11.754300 -0.000006 -0.000006 -0.001110 -0.016952 -17.262500
